<svg id="Layer_1" data-name="Layer 1" xmlns="http://www.w3.org/2000/svg" viewBox="0 0 534.21 85.59"><path d="M486.27,332.24H494a6,6,0,0,1,4.35,1.47,3.82,3.82,0,0,1,1.14,2.83v0a3.87,3.87,0,0,1-2.18,3.58c1.92.74,3.11,1.86,3.11,4.09v.05c0,3-2.47,4.56-6.23,4.56h-7.91Zm9.58,4.92c0-1.1-.86-1.71-2.4-1.71h-3.62V339h3.38c1.61,0,2.64-.52,2.64-1.76ZM494.06,342h-4.23v3.66h4.35c1.62,0,2.59-.57,2.59-1.8v-.05C496.77,342.69,495.94,342,494.06,342Z" transform="translate(-128.79 -263.56)" style="fill:#231f20"/><path d="M503.53,341.74v-9.5h3.66v9.41c0,2.71,1.36,4.11,3.59,4.11s3.59-1.35,3.59-4v-9.53H518v9.38c0,5-2.83,7.51-7.3,7.51S503.53,346.64,503.53,341.74Z" transform="translate(-128.79 -263.56)" style="fill:#231f20"/><path d="M522.3,332.24H526v16.63H522.3Z" transform="translate(-128.79 -263.56)" style="fill:#231f20"/><path d="M530.49,332.24h3.66v13.31h8.29v3.32h-12Z" transform="translate(-128.79 -263.56)" style="fill:#231f20"/><path d="M546.23,335.61h-5.06v-3.37H555v3.37h-5.06v13.26h-3.66Z" transform="translate(-128.79 -263.56)" style="fill:#231f20"/><path d="M564.76,332.24h7.73a6,6,0,0,1,4.34,1.47,3.78,3.78,0,0,1,1.14,2.83v0a3.85,3.85,0,0,1-2.18,3.58c1.92.74,3.11,1.86,3.11,4.09v.05c0,3-2.47,4.56-6.22,4.56h-7.92Zm9.58,4.92c0-1.1-.86-1.71-2.4-1.71h-3.61V339h3.37c1.62,0,2.64-.52,2.64-1.76ZM572.56,342h-4.23v3.66h4.35c1.61,0,2.59-.57,2.59-1.8v-.05C575.27,342.69,574.43,342,572.56,342Z" transform="translate(-128.79 -263.56)" style="fill:#231f20"/><path d="M582.29,332.24h12.55v3.25h-8.92v3.38h7.85v3.25h-7.85v3.5h9v3.25H582.29Z" transform="translate(-128.79 -263.56)" style="fill:#231f20"/><path d="M603.56,335.61H598.5v-3.37h13.78v3.37h-5.06v13.26h-3.66Z" transform="translate(-128.79 -263.56)" style="fill:#231f20"/><path d="M620.43,335.61h-5.06v-3.37h13.79v3.37h-5.07v13.26h-3.66Z" transform="translate(-128.79 -263.56)" style="fill:#231f20"/><path d="M632.33,332.24h12.55v3.25H636v3.38h7.84v3.25H636v3.5h9v3.25H632.33Z" transform="translate(-128.79 -263.56)" style="fill:#231f20"/><path d="M648.62,332.24h7.61a6.66,6.66,0,0,1,4.85,1.68,5.27,5.27,0,0,1,1.42,3.81v0a5.16,5.16,0,0,1-3.56,5.15l4.06,5.94h-4.28l-3.56-5.32h-2.88v5.32h-3.66Zm7.37,8.08c1.78,0,2.8-.95,2.8-2.35v-.05c0-1.57-1.09-2.38-2.87-2.38h-3.64v4.78Z" transform="translate(-128.79 -263.56)" style="fill:#231f20"/><path d="M328.48,332.24h3.37l7.8,10.24V332.24h3.61v16.63h-3.11l-8.06-10.57v10.57h-3.61Z" transform="translate(-128.79 -263.56)" style="fill:#231f20"/><path d="M348,332.24h12.55v3.25h-8.91v3.38h7.84v3.25h-7.84v3.5h9v3.25H348Z" transform="translate(-128.79 -263.56)" style="fill:#231f20"/><path d="M369.17,335.61H364.1v-3.37h13.79v3.37h-5.06v13.26h-3.66Z" transform="translate(-128.79 -263.56)" style="fill:#231f20"/><path d="M380.47,332.24h3.92l3.45,11.26,3.73-11.31h3.14l3.73,11.31,3.44-11.26h3.83L400,349h-3.19l-3.75-10.88L389.33,349h-3.18Z" transform="translate(-128.79 -263.56)" style="fill:#231f20"/><path d="M406.54,340.6v-.05a8.84,8.84,0,0,1,17.68,0v0a8.84,8.84,0,0,1-17.68.05Zm13.86,0v-.05a5,5,0,0,0-5-5.22,5,5,0,0,0-5,5.18v0a5.05,5.05,0,0,0,5,5.23A5,5,0,0,0,420.4,340.6Z" transform="translate(-128.79 -263.56)" style="fill:#231f20"/><path d="M427.29,332.24h7.61a6.66,6.66,0,0,1,4.85,1.68,5.27,5.27,0,0,1,1.42,3.81v0a5.16,5.16,0,0,1-3.56,5.15l4.06,5.94h-4.28l-3.56-5.32H431v5.32h-3.66Zm7.37,8.08c1.78,0,2.81-.95,2.81-2.35v-.05c0-1.57-1.1-2.38-2.88-2.38H431v4.78Z" transform="translate(-128.79 -263.56)" style="fill:#231f20"/><path d="M445,332.24h3.66v7.27l6.75-7.27h4.42L453,339.3l7.08,9.57h-4.4l-5.15-7.08-1.93,2v5.08H445Z" transform="translate(-128.79 -263.56)" style="fill:#231f20"/><path d="M461.87,346.45l2.17-2.59a7.63,7.63,0,0,0,5,2c1.5,0,2.4-.6,2.4-1.57v-.05c0-.92-.57-1.4-3.35-2.11-3.35-.86-5.51-1.79-5.51-5.09V337c0-3,2.42-5,5.82-5a9.65,9.65,0,0,1,6.18,2.11l-1.9,2.76a7.8,7.8,0,0,0-4.33-1.64c-1.4,0-2.14.64-2.14,1.45v.05c0,1.09.72,1.45,3.59,2.18,3.38.89,5.28,2.1,5.28,5v0c0,3.31-2.52,5.16-6.11,5.16A10.61,10.61,0,0,1,461.87,346.45Z" transform="translate(-128.79 -263.56)" style="fill:#231f20"/><polygon points="27.07 27.22 33.48 27.23 33.48 27.23 39.57 27.23 49.99 16.82 66.65 16.84 66.66 0.17 42.92 0.15 33.33 9.73 23.76 0.14 0.01 0.13 0 16.79 16.66 16.8 27.07 27.22" style="fill:#c22134"/><polygon points="27.07 31.16 33.48 31.16 33.48 31.16 39.57 31.16 49.99 41.56 66.65 41.55 66.66 58.22 42.92 58.23 33.33 48.66 23.76 58.24 0.01 58.26 0 41.6 16.66 41.59 27.07 31.16" style="fill:#c22134"/><path d="M263.39,305.92a45,45,0,0,1-4.92,6.55,28,28,0,0,1-6,5,29.18,29.18,0,0,1-7.42,3.22,33.39,33.39,0,0,1-9,1.14,29.09,29.09,0,0,1-11.53-2.3,30.94,30.94,0,0,1-9.41-6.23,28.47,28.47,0,0,1-6.34-9.23,28.77,28.77,0,0,1,0-22.59,28.47,28.47,0,0,1,6.34-9.23,30.94,30.94,0,0,1,9.41-6.23,29.09,29.09,0,0,1,11.53-2.3,33.54,33.54,0,0,1,9.15,1.15,28.32,28.32,0,0,1,7.38,3.23,27.74,27.74,0,0,1,6,5,48,48,0,0,1,4.88,6.49,1.45,1.45,0,0,1,.15,1.31,1.62,1.62,0,0,1-.92,1l-10.91,4.3a2,2,0,0,1-1.54,0,2.27,2.27,0,0,1-1.15-.92,16.24,16.24,0,0,0-5.39-5.42A14.51,14.51,0,0,0,236,278a12.57,12.57,0,0,0-5.49,1.23,14.82,14.82,0,0,0-4.5,3.28,15,15,0,0,0-3,4.73,15,15,0,0,0,0,11.14,14.57,14.57,0,0,0,3,4.66,15.22,15.22,0,0,0,4.5,3.24,12.57,12.57,0,0,0,5.49,1.23,14.64,14.64,0,0,0,7.65-2,15.73,15.73,0,0,0,5.42-5.27,2.33,2.33,0,0,1,1.12-.92,1.86,1.86,0,0,1,1.5,0l10.91,4.3a1.64,1.64,0,0,1,.92,1A1.56,1.56,0,0,1,263.39,305.92Z" transform="translate(-128.79 -263.56)" style="fill:#231f20"/><path d="M265,292.7a28,28,0,0,1,2.3-11.3,30,30,0,0,1,6.23-9.26,29.31,29.31,0,0,1,9.22-6.27,28.79,28.79,0,0,1,22.6,0,29.48,29.48,0,0,1,15.53,15.53,28.79,28.79,0,0,1,0,22.6,29.48,29.48,0,0,1-15.53,15.53,28.91,28.91,0,0,1-22.6,0,29.31,29.31,0,0,1-9.22-6.27,30.24,30.24,0,0,1-6.23-9.26A28,28,0,0,1,265,292.7Zm15.22,0a14.3,14.3,0,0,0,1.07,5.53,15.11,15.11,0,0,0,3,4.61,14.52,14.52,0,0,0,4.42,3.2,12.76,12.76,0,0,0,10.76,0,14.88,14.88,0,0,0,7.46-7.81A14.31,14.31,0,0,0,308,292.7a14.45,14.45,0,0,0-1.08-5.5,14.13,14.13,0,0,0-3-4.61,15,15,0,0,0-4.46-3.15,12.76,12.76,0,0,0-10.76,0,14.72,14.72,0,0,0-4.42,3.15,14.72,14.72,0,0,0-4,10.11Z" transform="translate(-128.79 -263.56)" style="fill:#231f20"/><path d="M381.24,266.41V319a1.84,1.84,0,0,1-1.84,1.84H368a3.33,3.33,0,0,1-1.61-.46,4,4,0,0,1-1.3-1.07l-20-28.22c-.31-.41-.63-.57-1-.5s-.5.38-.5.89V319a1.75,1.75,0,0,1-.54,1.3,1.8,1.8,0,0,1-1.32.54H330.28a1.79,1.79,0,0,1-1.31-.54,1.75,1.75,0,0,1-.54-1.3V266.41a1.79,1.79,0,0,1,.54-1.31,1.75,1.75,0,0,1,1.3-.54H341.8a3.57,3.57,0,0,1,1.62.43,3.62,3.62,0,0,1,1.3,1l20,28.21q.46.63,1,.54c.33,0,.5-.33.5-.84V266.41a1.84,1.84,0,0,1,1.85-1.85h11.37a1.84,1.84,0,0,1,1.85,1.85Z" transform="translate(-128.79 -263.56)" style="fill:#231f20"/><path d="M415.55,321.83a29.09,29.09,0,0,1-11.53-2.3,30.87,30.87,0,0,1-9.42-6.23,29.21,29.21,0,0,1-6.38-9.23,28.43,28.43,0,0,1,0-22.59,29.73,29.73,0,0,1,6.38-9.27A30.24,30.24,0,0,1,404,266a28.92,28.92,0,0,1,11.53-2.31,29.94,29.94,0,0,1,14.72,3.46,28.3,28.3,0,0,1,10.19,9.53,1.81,1.81,0,0,1,.19,1.42,1.87,1.87,0,0,1-.81,1.2l-9.22,5.91a2,2,0,0,1-1.39.27,2,2,0,0,1-1.3-.73,20.51,20.51,0,0,0-5.35-4.69,13.51,13.51,0,0,0-7-1.76,12.86,12.86,0,0,0-5.5,1.19,14.87,14.87,0,0,0-7.53,7.84,14.26,14.26,0,0,0,0,11,14.44,14.44,0,0,0,3,4.57,15.24,15.24,0,0,0,4.49,3.16,13,13,0,0,0,5.5,1.19,16.15,16.15,0,0,0,5.77-1.08,9.4,9.4,0,0,0,4.53-3.54,1,1,0,0,0,.08-1.11,1.18,1.18,0,0,0-1.08-.5H416a1.84,1.84,0,0,1-1.84-1.85V290a1.79,1.79,0,0,1,.54-1.31,1.75,1.75,0,0,1,1.3-.54h26.45a2,2,0,0,1,1.34.5,2,2,0,0,1,.65,1.35,26.09,26.09,0,0,1,.16,3.19,34.75,34.75,0,0,1-.23,3.88,25.89,25.89,0,0,1-3,9.84,27.42,27.42,0,0,1-6.34,7.84,29.94,29.94,0,0,1-19.49,7.07Z" transform="translate(-128.79 -263.56)" style="fill:#231f20"/><path d="M463.22,320.83H451.71a1.77,1.77,0,0,1-1.31-.54,1.75,1.75,0,0,1-.54-1.3V266.41a1.83,1.83,0,0,1,1.84-1.85h23.91a22,22,0,0,1,8.22,1.5,18.57,18.57,0,0,1,6.42,4.19,19.39,19.39,0,0,1,4.15,6.38,21.46,21.46,0,0,1,1.5,8.15,21.46,21.46,0,0,1-2.23,9.45,19.47,19.47,0,0,1-2.54,3.89,14.07,14.07,0,0,1-3.3,2.88,2.17,2.17,0,0,0-.81,1.11,1.37,1.37,0,0,0,.27,1.27q2.93,3.86,6.15,7.92t5.77,7.46a1.44,1.44,0,0,1,.23,1.34,1,1,0,0,1-1,.73h-14.3a3.87,3.87,0,0,1-1.65-.42,3.57,3.57,0,0,1-1.35-1q-2.44-3.22-4.86-6.53c-1.6-2.2-3.2-4.43-4.78-6.69a3.54,3.54,0,0,0-1.3-1,3.61,3.61,0,0,0-1.61-.42h-1.68a1.83,1.83,0,0,0-1.83,1.84V319a1.86,1.86,0,0,1-1.86,1.84Zm3.69-30.28H475a5.82,5.82,0,0,0,1.91-.35,5.47,5.47,0,0,0,1.84-1.08,5.55,5.55,0,0,0,1.91-4.34,7.41,7.41,0,0,0-.27-1.81,6.48,6.48,0,0,0-.91-2,5.61,5.61,0,0,0-1.76-1.62,5.34,5.34,0,0,0-2.72-.65h-8.11a1.83,1.83,0,0,0-1.83,1.84v8.15a1.83,1.83,0,0,0,1.83,1.85Z" transform="translate(-128.79 -263.56)" style="fill:#231f20"/><path d="M501.79,266.48a1.83,1.83,0,0,1,1.83-1.84h11.55a1.84,1.84,0,0,1,1.84,1.84v31.14a11.27,11.27,0,0,0,1,5,8.66,8.66,0,0,0,2.39,3.07,9,9,0,0,0,3,1.58,9.59,9.59,0,0,0,5.87,0,8.63,8.63,0,0,0,3-1.58,8.94,8.94,0,0,0,2.35-3.07,11.12,11.12,0,0,0,1-5V266.48a1.8,1.8,0,0,1,.53-1.3,1.77,1.77,0,0,1,1.3-.54H549a1.84,1.84,0,0,1,1.84,1.84v31.14a27.23,27.23,0,0,1-1.73,9.91,21.21,21.21,0,0,1-5,7.62A22.44,22.44,0,0,1,536.4,320a30.25,30.25,0,0,1-20.11,0,22.44,22.44,0,0,1-7.75-4.88,21.71,21.71,0,0,1-5-7.62,26.61,26.61,0,0,1-1.76-9.91Z" transform="translate(-128.79 -263.56)" style="fill:#231f20"/><path d="M572.49,280.55v3.23a1.84,1.84,0,0,0,1.85,1.85h20.83a1.82,1.82,0,0,1,1.31.53,1.79,1.79,0,0,1,.54,1.31v10.61a1.79,1.79,0,0,1-.54,1.31,1.82,1.82,0,0,1-1.31.53H574.34a1.83,1.83,0,0,0-1.31.54,1.79,1.79,0,0,0-.54,1.31v2.92a1.83,1.83,0,0,0,1.85,1.84h23.91a1.77,1.77,0,0,1,1.3.54,1.79,1.79,0,0,1,.54,1.31V319a1.84,1.84,0,0,1-1.84,1.84H559.12a1.77,1.77,0,0,1-1.31-.54,1.75,1.75,0,0,1-.54-1.3V266.41a1.84,1.84,0,0,1,1.85-1.85h39.13a1.77,1.77,0,0,1,1.3.54,1.79,1.79,0,0,1,.54,1.31v10.45a1.79,1.79,0,0,1-.54,1.31,1.77,1.77,0,0,1-1.3.54H574.34a1.79,1.79,0,0,0-1.31.54A1.77,1.77,0,0,0,572.49,280.55Z" transform="translate(-128.79 -263.56)" style="fill:#231f20"/><path d="M622.17,291.55l-19.29-24.76a1.48,1.48,0,0,1-.23-1.38,1,1,0,0,1,1-.77h14.76a3.33,3.33,0,0,1,1.61.46,4,4,0,0,1,1.31,1.08l9.61,14.06a1.29,1.29,0,0,0,1.07.62,1.32,1.32,0,0,0,1.08-.62q2.46-3.45,4.88-7.1c1.62-2.44,3.19-4.78,4.73-7a3.68,3.68,0,0,1,1.31-1,3.61,3.61,0,0,1,1.61-.42H660.3a1,1,0,0,1,1.08.77,1.66,1.66,0,0,1-.31,1.38l-19.14,24.76a2.55,2.55,0,0,0,0,2.92l18.76,24.13a1.48,1.48,0,0,1,.19,1.43,1,1,0,0,1-1,.8h-14.6a3.33,3.33,0,0,1-1.62-.46,4.08,4.08,0,0,1-1.31-1.07l-9.22-13.46a1.33,1.33,0,0,0-1.08-.61,1.3,1.3,0,0,0-1.07.61l-9.23,13.46a3.93,3.93,0,0,1-1.3,1.07,3.39,3.39,0,0,1-1.62.46h-14.6a1,1,0,0,1-1-.8,1.54,1.54,0,0,1,.23-1.43l18.75-24.13a2.5,2.5,0,0,0,0-2.92Z" transform="translate(-128.79 -263.56)" style="fill:#231f20"/></svg>